<svg width="200" height="200" xmlns="http://www.w3.org/2000/svg" version="1.1">
 <title>Ampliosoft</title>

 <g>
  <title>Layer 1</title>
  <g stroke="null" id="svg_17">
   <path stroke="null" id="svg_1" fill="rgb(100%,100%,100%)" fill-rule="nonzero" d="m47.38755,168.97282l-46.67661,0l12.17578,-20.62481l49.46724,0c4.25239,-0.01576 8.38852,1.23087 11.8768,3.53478c9.268889,5.99652 14.6508,16.0801 14.25214,26.73178c-12.6907,-6.29631 -26.77674,-9.6102 -41.09535,-9.64175zm0,0"/>
   <path stroke="null" id="svg_2" fill="rgb(100%,100%,100%)" fill-rule="nonzero" d="m152.61756,168.97282l46.67665,0l-12.25887,-20.62481l-49.38419,0c-4.25239,-0.01576 -8.38848,1.23087 -11.8768,3.53478c-9.26885,5.99652 -14.6508,16.0801 -14.25214,26.73178c12.69075,-6.29631 26.77679,-9.6102 41.09535,-9.64175zm0,0"/>
   <path stroke="null" id="svg_3" fill="rgb(100%,100%,100%)" fill-rule="nonzero" d="m99.46269,75.42741l36.7267,60.40688l43.40427,0l-80.13096,-134.41632l-79.26718,134.41632l42.60694,0l36.66023,-60.40688zm0,0"/>
  </g>
 </g>
</svg>
